<svg width="31" height="65" viewBox="0 0 31 65" fill="none" xmlns="http://www.w3.org/2000/svg">
<g filter="url(#filter0_ddii)">
<path fill-rule="evenodd" clip-rule="evenodd" d="M9 14C6.79086 14 5 15.7909 5 18V35.9355C2.03656 37.4082 0 40.4663 0 44C0 48.9706 4.02944 53 9 53C13.9706 53 18 48.9706 18 44C18 40.4663 15.9634 37.4082 13 35.9355V18C13 15.7909 11.2091 14 9 14Z" fill="#E1E1E1"/>
<path fill-rule="evenodd" clip-rule="evenodd" d="M9 14C6.79086 14 5 15.7909 5 18V35.9355C2.03656 37.4082 0 40.4663 0 44C0 48.9706 4.02944 53 9 53C13.9706 53 18 48.9706 18 44C18 40.4663 15.9634 37.4082 13 35.9355V18C13 15.7909 11.2091 14 9 14Z" fill="url(#paint0_linear)" fill-opacity="0.3" style="mix-blend-mode:soft-light"/>
</g>
<g filter="url(#filter1_ddii)">
<path fill-rule="evenodd" clip-rule="evenodd" d="M9 28C8.44772 28 8 28.4477 8 29V39.1C5.71776 39.5633 4 41.581 4 44C4 46.7614 6.23858 49 9 49C11.7614 49 14 46.7614 14 44C14 41.581 12.2822 39.5633 10 39.1V29C10 28.4477 9.55228 28 9 28Z" fill="#827272"/>
<path fill-rule="evenodd" clip-rule="evenodd" d="M9 28C8.44772 28 8 28.4477 8 29V39.1C5.71776 39.5633 4 41.581 4 44C4 46.7614 6.23858 49 9 49C11.7614 49 14 46.7614 14 44C14 41.581 12.2822 39.5633 10 39.1V29C10 28.4477 9.55228 28 9 28Z" fill="url(#paint1_linear)" fill-opacity="0.3" style="mix-blend-mode:soft-light"/>
<path fill-rule="evenodd" clip-rule="evenodd" d="M9 28C8.44772 28 8 28.4477 8 29V39.1C5.71776 39.5633 4 41.581 4 44C4 46.7614 6.23858 49 9 49C11.7614 49 14 46.7614 14 44C14 41.581 12.2822 39.5633 10 39.1V29C10 28.4477 9.55228 28 9 28Z" fill="url(#paint2_linear)" fill-opacity="0.6" style="mix-blend-mode:soft-light"/>
</g>
<defs>
<filter id="filter0_ddii" x="-15" y="0" width="46" height="65" filterUnits="userSpaceOnUse" color-interpolation-filters="sRGB">
<feFlood flood-opacity="0" result="BackgroundImageFix"/>
<feColorMatrix in="SourceAlpha" type="matrix" values="0 0 0 0 0 0 0 0 0 0 0 0 0 0 0 0 0 0 127 0"/>
<feOffset dx="4" dy="3"/>
<feGaussianBlur stdDeviation="4.5"/>
<feColorMatrix type="matrix" values="0 0 0 0 1 0 0 0 0 1 0 0 0 0 1 0 0 0 0.3 0"/>
<feBlend mode="soft-light" in2="BackgroundImageFix" result="effect1_dropShadow"/>
<feColorMatrix in="SourceAlpha" type="matrix" values="0 0 0 0 0 0 0 0 0 0 0 0 0 0 0 0 0 0 127 0"/>
<feOffset dx="-3" dy="-2"/>
<feGaussianBlur stdDeviation="6"/>
<feColorMatrix type="matrix" values="0 0 0 0 0 0 0 0 0 0 0 0 0 0 0 0 0 0 0.11 0"/>
<feBlend mode="soft-light" in2="effect1_dropShadow" result="effect2_dropShadow"/>
<feBlend mode="normal" in="SourceGraphic" in2="effect2_dropShadow" result="shape"/>
<feColorMatrix in="SourceAlpha" type="matrix" values="0 0 0 0 0 0 0 0 0 0 0 0 0 0 0 0 0 0 127 0" result="hardAlpha"/>
<feOffset dx="-2" dy="-1"/>
<feGaussianBlur stdDeviation="1.5"/>
<feComposite in2="hardAlpha" operator="arithmetic" k2="-1" k3="1"/>
<feColorMatrix type="matrix" values="0 0 0 0 1 0 0 0 0 1 0 0 0 0 1 0 0 0 0.93 0"/>
<feBlend mode="soft-light" in2="shape" result="effect3_innerShadow"/>
<feColorMatrix in="SourceAlpha" type="matrix" values="0 0 0 0 0 0 0 0 0 0 0 0 0 0 0 0 0 0 127 0" result="hardAlpha"/>
<feOffset dx="3" dy="2"/>
<feGaussianBlur stdDeviation="2"/>
<feComposite in2="hardAlpha" operator="arithmetic" k2="-1" k3="1"/>
<feColorMatrix type="matrix" values="0 0 0 0 0 0 0 0 0 0 0 0 0 0 0 0 0 0 0.11 0"/>
<feBlend mode="normal" in2="effect3_innerShadow" result="effect4_innerShadow"/>
</filter>
<filter id="filter1_ddii" x="0" y="24" width="17" height="28" filterUnits="userSpaceOnUse" color-interpolation-filters="sRGB">
<feFlood flood-opacity="0" result="BackgroundImageFix"/>
<feColorMatrix in="SourceAlpha" type="matrix" values="0 0 0 0 0 0 0 0 0 0 0 0 0 0 0 0 0 0 127 0"/>
<feOffset dx="-1" dy="-1"/>
<feGaussianBlur stdDeviation="1.5"/>
<feColorMatrix type="matrix" values="0 0 0 0 0 0 0 0 0 0 0 0 0 0 0 0 0 0 0.09 0"/>
<feBlend mode="normal" in2="BackgroundImageFix" result="effect1_dropShadow"/>
<feColorMatrix in="SourceAlpha" type="matrix" values="0 0 0 0 0 0 0 0 0 0 0 0 0 0 0 0 0 0 127 0"/>
<feOffset dx="1" dy="1"/>
<feGaussianBlur stdDeviation="1"/>
<feColorMatrix type="matrix" values="0 0 0 0 1 0 0 0 0 1 0 0 0 0 1 0 0 0 1 0"/>
<feBlend mode="normal" in2="effect1_dropShadow" result="effect2_dropShadow"/>
<feBlend mode="normal" in="SourceGraphic" in2="effect2_dropShadow" result="shape"/>
<feColorMatrix in="SourceAlpha" type="matrix" values="0 0 0 0 0 0 0 0 0 0 0 0 0 0 0 0 0 0 127 0" result="hardAlpha"/>
<feOffset dx="-1" dy="-1"/>
<feGaussianBlur stdDeviation="0.5"/>
<feComposite in2="hardAlpha" operator="arithmetic" k2="-1" k3="1"/>
<feColorMatrix type="matrix" values="0 0 0 0 1 0 0 0 0 1 0 0 0 0 1 0 0 0 0.182064 0"/>
<feBlend mode="soft-light" in2="shape" result="effect3_innerShadow"/>
<feColorMatrix in="SourceAlpha" type="matrix" values="0 0 0 0 0 0 0 0 0 0 0 0 0 0 0 0 0 0 127 0" result="hardAlpha"/>
<feOffset dx="1"/>
<feGaussianBlur stdDeviation="1"/>
<feComposite in2="hardAlpha" operator="arithmetic" k2="-1" k3="1"/>
<feColorMatrix type="matrix" values="0 0 0 0 0 0 0 0 0 0 0 0 0 0 0 0 0 0 0.491641 0"/>
<feBlend mode="soft-light" in2="effect3_innerShadow" result="effect4_innerShadow"/>
</filter>
<linearGradient id="paint0_linear" x1="23.88" y1="33.3574" x2="-0.178223" y2="22.3668" gradientUnits="userSpaceOnUse">
<stop/>
<stop offset="1" stop-opacity="0.01"/>
</linearGradient>
<linearGradient id="paint1_linear" x1="17.2667" y1="38.4232" x2="4.0482" y2="32.1929" gradientUnits="userSpaceOnUse">
<stop stop-color="white" stop-opacity="0.01"/>
<stop offset="1" stop-color="white"/>
</linearGradient>
<linearGradient id="paint2_linear" x1="12.4783" y1="44.9167" x2="1.16198" y2="42.2133" gradientUnits="userSpaceOnUse">
<stop stop-opacity="0.5"/>
<stop offset="1" stop-color="white" stop-opacity="0.5"/>
</linearGradient>
</defs>
</svg>
